<?xml version="1.0" encoding="UTF-8"?>
<svg width="512" height="205.11" version="1.1" xml:space="preserve" xmlns="http://www.w3.org/2000/svg"><g transform="matrix(1.2528 0 0 -1.2528 -4.5675 207.78)" fill="#10427a"><g><path d="m403.35 27.938c-3.684 0-6.484 0.781-8.869 3.203l3.07 3.07c1.535-1.531 3.615-2.046 5.865-2.046 2.797 0 4.301 1.06 4.301 3.003 0 0.852-0.24 1.567-0.754 2.047-0.476 0.442-1.021 0.68-2.146 0.852l-2.936 0.408c-2.08 0.307-3.615 0.955-4.705 2.016-1.16 1.16-1.74 2.728-1.74 4.775 0 4.33 3.205 7.367 8.457 7.367 3.344 0 5.766-0.82 7.85-2.832l-3.006-2.968c-1.535 1.468-3.375 1.673-4.981 1.673-2.523 0-3.75-1.4-3.75-3.07 0-0.615 0.205-1.264 0.715-1.74 0.481-0.445 1.266-0.82 2.254-0.955l2.863-0.41c2.219-0.305 3.619-0.92 4.639-1.875 1.299-1.229 1.875-3 1.875-5.151 0-4.707-3.92-7.367-9.002-7.367"/><path d="m374.7 28.139v24.291h16.002v-4.23h-11.262v-5.7h9.586v-4.23h-9.586v-5.901h11.262v-4.23z"/><path d="m362.99 46.7c-0.818 0.986-1.91 1.5-3.545 1.5h-3.586v-15.83h3.586c1.635 0 2.727 0.514 3.545 1.502 0.889 1.09 1.025 2.832 1.025 6.514 0 3.685-0.136 5.22-1.025 6.314m3.311-16.24c-1.606-1.604-3.891-2.321-6.416-2.321h-8.766v24.291h8.766c2.525 0 4.81-0.718 6.416-2.32 2.726-2.728 2.455-6.074 2.455-9.724 0-3.651 0.271-7.196-2.455-9.926"/><path d="m339.18 28.139-9.617 14.908v-14.908h-4.742v24.291h4.23l9.617-14.875v14.875h4.742v-24.291z"/><path d="m309.85 45.266-3.07-8.836h6.037zm5.662-17.127-1.435 4.301h-8.629l-1.467-4.301h-4.945l8.835 24.291h3.717l8.869-24.291z"/><path d="m280.72 28.139v24.291h4.742v-20.061h11.016v-4.23z"/><path d="m266.25 48.2h-4.469v-6.414h4.469c2.08 0 3.445 1.33 3.445 3.205s-1.365 3.209-3.445 3.209m3.686-20.061-4.741 9.692h-3.414v-9.692h-4.742v24.291h9.52c4.947 0 7.879-3.378 7.879-7.439 0-3.41-2.083-5.525-4.434-6.377l5.422-10.475z"/><path d="m242.07 45.266-3.07-8.836h6.035zm5.66-17.127-1.431 4.301h-8.629l-1.469-4.301h-4.947l8.836 24.291h3.72l8.865-24.291z"/><path d="m218.26 45.266-3.07-8.836h6.037zm5.662-17.127-1.432 4.301h-8.63l-1.465-4.301h-4.949l8.835 24.291h3.719l8.867-24.291z"/><path d="m195.26 27.938c-3.682 0-6.48 0.781-8.869 3.203l3.07 3.07c1.535-1.531 3.617-2.046 5.869-2.046 2.795 0 4.299 1.06 4.299 3.003 0 0.852-0.242 1.567-0.754 2.047-0.474 0.442-1.023 0.68-2.148 0.852l-2.932 0.408c-2.08 0.307-3.615 0.955-4.709 2.016-1.16 1.16-1.738 2.728-1.738 4.775 0 4.33 3.207 7.367 8.457 7.367 3.346 0 5.766-0.82 7.846-2.832l-3-2.968c-1.536 1.468-3.377 1.673-4.981 1.673-2.525 0-3.752-1.4-3.752-3.07 0-0.615 0.203-1.264 0.717-1.74 0.475-0.445 1.26-0.82 2.25-0.955l2.865-0.41c2.219-0.305 3.615-0.92 4.641-1.875 1.295-1.229 1.875-3 1.875-5.151 0-4.707-3.922-7.367-9.006-7.367"/></g><g><path d="m239.37 68.872c-3.686 0-6.482 0.785-8.871 3.207l3.07 3.07c1.535-1.535 3.615-2.047 5.869-2.047 2.797 0 4.297 1.057 4.297 3.002 0 0.85-0.24 1.569-0.75 2.045-0.48 0.446-1.025 0.684-2.15 0.856l-2.932 0.406c-2.084 0.309-3.619 0.957-4.709 2.014-1.16 1.16-1.74 2.73-1.74 4.774 0 4.332 3.205 7.367 8.461 7.367 3.344 0 5.766-0.816 7.846-2.832l-3.002-2.965c-1.535 1.465-3.379 1.67-4.981 1.67-2.523 0-3.754-1.396-3.754-3.07 0-0.611 0.205-1.26 0.719-1.74 0.477-0.441 1.262-0.816 2.252-0.955l2.861-0.408c2.219-0.307 3.619-0.921 4.641-1.876 1.297-1.229 1.875-3 1.875-5.151 0-4.707-3.922-7.367-9.002-7.367"/><path d="m210.68 69.075v24.288h15.998v-4.228h-11.256v-5.697h9.586v-4.23h-9.586v-5.903h11.256v-4.23z"/><path d="m198.99 87.632c-0.82 0.988-1.91 1.502-3.551 1.502h-3.58v-15.829h3.58c1.641 0 2.731 0.514 3.551 1.5 0.885 1.094 1.023 2.834 1.023 6.515 0 3.683-0.138 5.218-1.023 6.312m3.309-16.237c-1.604-1.602-3.889-2.321-6.414-2.321h-8.766v24.288h8.766c2.525 0 4.81-0.714 6.414-2.318 2.726-2.73 2.453-6.072 2.453-9.724 0-3.648 0.273-7.197-2.453-9.925"/></g><g><path d="m399.09 130.07v-20.057h-4.742v20.057h-6.342v4.23h17.428v-4.23z"/><path d="m378.58 140.98h3.789v-4.266h-3.789zm-1.703-13.85-3.071-8.835h6.037zm-5.834 13.85h3.785v-4.266h-3.785zm11.496-30.975-1.432 4.299h-8.629l-1.471-4.299h-4.945l8.836 24.288h3.717l8.869-24.288z"/><path d="m359.21 130.07v-20.057h-4.74v20.057h-6.346v4.23h17.432v-4.23z"/><path d="m338.16 134.3h4.74v-24.287h-4.74z"/><path d="m323.32 109.8c-3.684 0-6.48 0.785-8.867 3.207l3.07 3.07c1.535-1.535 3.613-2.047 5.867-2.047 2.795 0 4.297 1.059 4.297 3.002 0 0.854-0.238 1.569-0.752 2.047-0.474 0.444-1.021 0.682-2.146 0.852l-2.934 0.408c-2.08 0.309-3.615 0.957-4.711 2.016-1.156 1.158-1.738 2.728-1.738 4.775 0 4.33 3.209 7.367 8.459 7.367 3.346 0 5.766-0.818 7.846-2.83l-3-2.969c-1.536 1.467-3.379 1.672-4.981 1.672-2.525 0-3.754-1.398-3.754-3.07 0-0.613 0.209-1.262 0.719-1.738 0.477-0.446 1.26-0.821 2.25-0.957l2.865-0.41c2.217-0.307 3.619-0.92 4.641-1.875 1.295-1.229 1.875-3.002 1.875-5.151 0-4.707-3.92-7.369-9.006-7.369"/><path d="m302.17 130.07h-4.471v-6.412h4.471c2.08 0 3.445 1.33 3.445 3.205 0 1.877-1.365 3.207-3.445 3.207m3.682-20.057-4.743 9.688h-3.41v-9.688h-4.74v24.287h9.516c4.945 0 7.881-3.375 7.881-7.437 0-3.41-2.081-5.523-4.436-6.377l5.426-10.473z"/><path d="m270.96 110.01v24.287h15.996v-4.23h-11.256v-5.696h9.586v-4.23h-9.586v-5.902h11.256v-4.229z"/><path d="m258.95 110.01h-3.549l-8.015 24.287h4.912l4.879-15.828 4.878 15.828h4.946z"/><path d="m238.35 134.3h4.742v-24.287h-4.742z"/><path d="m226.41 110.01-9.619 14.906v-14.906h-4.744v24.287h4.23l9.619-14.871v14.871h4.741v-24.287z"/><path d="m196.46 109.8c-4.98 0-8.939 3.377-8.939 8.529v15.963h4.744v-15.793c0-2.797 1.634-4.469 4.195-4.469 2.557 0 4.23 1.672 4.23 4.469v15.793h4.706v-15.963c0-5.152-3.956-8.529-8.936-8.529"/></g></g><g transform="matrix(1.2528 0 0 -1.2528 -4.5675 207.78)"><path d="m149.54 125.17v-97.63h-6.512c-12.183 0-23.396 5.76-29.499 11.559v-16.85h15.133l6.23-11.986h-2.879l-6.555 4.58h-8.503l3.029-3.276 1.043-9.427h-2.588l-11.674 12.703h-18.525l-4.022-4.58h-2.584l3.149 11.986h15.174l-8.19 8.906h-30.518l-8.189-8.906h15.174l3.152-11.986h-2.59l-4.019 4.58h-18.528l-11.677-12.705h-2.584l1.043 9.424 3.029 3.281h-8.502l-6.551-4.58h-2.883l6.235 11.986h15.287v16.834c-6.106-5.793-17.314-11.543-29.484-11.543h-6.516v97.63c0 8.232 6.523 12.848 14.68 12.848 10.134 0 17.547-7.135 21.836-14.256l3.48 42.109h16.688s5.074-7.203 6.609-9.381h18.625c1.539 2.166 6.68 9.381 6.68 9.381h16.291l4.382-42.291c4.276 7.18 11.719 14.438 21.939 14.438 8.161 0 14.684-4.616 14.684-12.848" fill="#10427a"/><g fill="#fff"><g><path d="m122.55 117.33c0 0.953-0.773 1.729-1.729 1.729-0.96 0-1.734-0.776-1.734-1.729v-54.956c0-0.662-0.475-1.201-1.06-1.201-0.584 0-1.061 0.539-1.061 1.201v47.556c0 0.957-0.773 1.732-1.729 1.732-0.96 0-1.734-0.775-1.734-1.732v-56.814c0-2.572 2.029-4.664 4.524-4.664 2.496 0 4.523 2.092 4.523 4.664z"/><path d="m137.82 123.61c0 0.955-0.777 1.73-1.732 1.73-0.956 0-1.733-0.775-1.733-1.73v-60.267c0-0.66-0.473-1.203-1.062-1.203-0.58 0-1.059 0.543-1.059 1.203v61.47c0 0.955-0.773 1.731-1.73 1.731-0.955 0-1.73-0.776-1.73-1.731v-78.499c0-2.568 2.028-4.664 4.519-4.664 2.496 0 4.527 2.096 4.527 4.664z"/></g><g><g><path d="m104.03 68.524c0 0.953-0.773 1.73-1.729 1.73-0.957 0-1.734-0.777-1.734-1.73v-11.211c0-0.662-0.475-1.201-1.06-1.201-0.581 0-1.061 0.539-1.061 1.201v11.211c0 0.953-0.773 1.73-1.729 1.73-0.955 0-1.728-0.777-1.728-1.73v-20.275c0-2.573 2.027-4.664 4.518-4.664 2.496 0 4.523 2.091 4.523 4.664z"/><path d="m88.771 63.893c0 0.955-0.777 1.732-1.73 1.732-0.959 0-1.733-0.777-1.733-1.732v-11.213c0-0.664-0.475-1.203-1.06-1.203-0.586 0-1.061 0.539-1.061 1.203v11.213c0 0.955-0.773 1.732-1.732 1.732-0.957 0-1.731-0.777-1.731-1.732v-20.275c0-2.575 2.027-4.664 4.524-4.664 2.492 0 4.523 2.089 4.523 4.664z"/><path d="m72.704 63.893c0 0.955-0.773 1.732-1.729 1.732-0.96 0-1.734-0.777-1.734-1.732v-11.213c0-0.664-0.475-1.203-1.06-1.203-0.582 0-1.061 0.539-1.061 1.203v11.213c0 0.955-0.773 1.732-1.729 1.732-0.96 0-1.734-0.777-1.734-1.732v-20.275c0-2.575 2.031-4.664 4.524-4.664 2.496 0 4.523 2.089 4.523 4.664z"/><path d="m57.439 68.524c0 0.953-0.777 1.73-1.732 1.73-0.956 0-1.733-0.777-1.733-1.73v-11.211c0-0.662-0.473-1.201-1.058-1.201-0.584 0-1.063 0.539-1.063 1.201v11.211c0 0.953-0.773 1.73-1.73 1.73-0.955 0-1.729-0.777-1.729-1.73v-20.275c0-2.573 2.027-4.664 4.522-4.664 2.492 0 4.523 2.091 4.523 4.664z"/></g><g><path d="m104.03 100.62c0 0.955-0.773 1.73-1.729 1.73-0.957 0-1.734-0.775-1.734-1.73v-11.213c0-0.662-0.475-1.201-1.06-1.201-0.581 0-1.061 0.539-1.061 1.201v11.213c0 0.955-0.773 1.73-1.729 1.73-0.955 0-1.728-0.775-1.728-1.73v-20.276c0-2.573 2.027-4.664 4.518-4.664 2.496 0 4.523 2.091 4.523 4.664z"/><path d="m88.771 95.986c0 0.953-0.777 1.729-1.73 1.729-0.959 0-1.733-0.776-1.733-1.729v-11.212c0-0.664-0.475-1.204-1.06-1.204-0.586 0-1.061 0.54-1.061 1.204v11.212c0 0.953-0.773 1.729-1.732 1.729-0.957 0-1.731-0.776-1.731-1.729v-20.278c0-2.569 2.027-4.664 4.524-4.664 2.492 0 4.523 2.095 4.523 4.664z"/><path d="m72.704 95.986c0 0.953-0.773 1.729-1.729 1.729-0.96 0-1.734-0.776-1.734-1.729v-11.212c0-0.664-0.475-1.204-1.06-1.204-0.582 0-1.061 0.54-1.061 1.204v11.212c0 0.953-0.773 1.729-1.729 1.729-0.96 0-1.734-0.776-1.734-1.729v-20.278c0-2.569 2.031-4.664 4.524-4.664 2.496 0 4.523 2.095 4.523 4.664z"/><path d="m57.439 100.62c0 0.955-0.777 1.73-1.732 1.73-0.956 0-1.733-0.775-1.733-1.73v-11.213c0-0.662-0.473-1.201-1.058-1.201-0.584 0-1.063 0.539-1.063 1.201v11.213c0 0.955-0.773 1.73-1.73 1.73-0.955 0-1.729-0.775-1.729-1.73v-20.276c0-2.573 2.027-4.664 4.522-4.664 2.492 0 4.523 2.091 4.523 4.664z"/></g></g><g><path d="m30.575 53.1c0-2.572 2.031-4.664 4.527-4.664 2.493 0 4.52 2.092 4.52 4.664v56.817c0 0.954-0.774 1.727-1.729 1.727-0.959 0-1.732-0.773-1.732-1.727v-47.557c0-0.664-0.477-1.203-1.059-1.203-0.589 0-1.062 0.539-1.062 1.203v54.956c0 0.953-0.776 1.728-1.731 1.728s-1.734-0.775-1.734-1.728z"/><path d="m15.312 46.303c0-2.568 2.027-4.662 4.523-4.662 2.495 0 4.522 2.094 4.522 4.662v78.501c0 0.953-0.777 1.728-1.732 1.728-0.956 0-1.729-0.775-1.729-1.728v-61.472c0-0.658-0.477-1.199-1.061-1.199-0.585 0-1.06 0.541-1.06 1.199v60.269c0 0.957-0.774 1.73-1.734 1.73-0.956 0-1.729-0.773-1.729-1.73z"/></g></g><path d="m76.337 122.91-4.43-3.326 4.43-9.987 4.516 9.987z" fill="#fff"/><g><g><path d="m104.3 134.2c0-7.291-5.912-13.205-13.207-13.205-7.291 0-13.201 5.914-13.201 13.205s5.91 13.205 13.201 13.205c7.295 0 13.207-5.914 13.207-13.205" fill="#fff"/><path d="m101.12 134.2c0-5.535-4.484-10.02-10.02-10.02-5.535 0-10.021 4.485-10.021 10.02 0 5.533 4.486 10.02 10.021 10.02 5.536 0 10.02-4.487 10.02-10.02" fill="#10427a"/><path d="m96.874 134.2c0-3.189-2.584-5.777-5.777-5.777-3.188 0-5.778 2.588-5.778 5.777s2.59 5.777 5.778 5.777c3.193 0 5.777-2.588 5.777-5.777" fill="#fff"/></g><g><path d="m74.861 134.2c0-7.291-5.906-13.205-13.201-13.205-7.291 0-13.201 5.914-13.201 13.205s5.91 13.205 13.201 13.205c7.295 0 13.201-5.914 13.201-13.205" fill="#fff"/><path d="m71.679 134.2c0-5.535-4.482-10.02-10.02-10.02-5.531 0-10.019 4.485-10.019 10.02 0 5.533 4.488 10.02 10.019 10.02 5.538 0 10.02-4.487 10.02-10.02" fill="#10427a"/><path d="m67.437 134.2c0-3.189-2.584-5.777-5.777-5.777-3.188 0-5.778 2.588-5.778 5.777s2.59 5.777 5.778 5.777c3.193 0 5.777-2.588 5.777-5.777" fill="#fff"/></g></g></g></svg>
